<svg width="17" height="14" viewBox="0 0 17 14" fill="none" xmlns="http://www.w3.org/2000/svg">
<path d="M1 11.998V13.707H2.713C2.66563 13.27 2.47035 12.8623 2.15953 12.5515C1.84871 12.2406 1.44101 12.0454 1.004 11.998H1Z" fill="#404642"/>
<path d="M0.999995 9.01995V10.003C1.96252 10.0604 2.8706 10.4687 3.55242 11.1505C4.23424 11.8324 4.64252 12.7404 4.7 13.703H5.68299C5.62871 12.4771 5.11738 11.3159 4.2497 10.4483C3.38201 9.58057 2.22088 9.06923 0.994995 9.01495L0.999995 9.01995Z" fill="#404642"/>
<path d="M6.353 8.354C4.92902 6.92923 3.01357 6.10372 1 6.047V7.029C2.74802 7.10131 4.40494 7.82826 5.64185 9.06554C6.87876 10.3028 7.60521 11.96 7.677 13.708H8.661C8.63211 12.7324 8.42292 11.7705 8.044 10.871C7.64876 9.93035 7.07444 9.0755 6.353 8.354Z" fill="#404642"/>
<path d="M16.833 2.07897C16.8333 1.91696 16.8014 1.7565 16.7391 1.60696C16.6768 1.45741 16.5853 1.32178 16.47 1.20797C16.3563 1.09274 16.2208 1.00129 16.0715 0.93897C15.9221 0.876647 15.7618 0.844692 15.6 0.844973H2.23197C2.07011 0.844692 1.90983 0.876647 1.76046 0.93897C1.61108 1.00129 1.47562 1.09274 1.36197 1.20797C1.24666 1.32178 1.15517 1.45741 1.09285 1.60696C1.03052 1.7565 0.998608 1.91696 0.998965 2.07897V4.05297H1.97897V1.82597H15.852V12.731H10.652V13.711H15.599C15.7608 13.7113 15.9211 13.6793 16.0705 13.617C16.2198 13.5547 16.3553 13.4632 16.469 13.348C16.5841 13.2347 16.6755 13.0995 16.7378 12.9505C16.8001 12.8015 16.8321 12.6415 16.832 12.48L16.833 2.07897Z" fill="#404642"/>
</svg>
