<svg width="19" height="10" viewBox="0 0 19 10" fill="none" xmlns="http://www.w3.org/2000/svg">
<path d="M8.21 9.464C8.28694 9.56306 8.3855 9.64323 8.49815 9.69837C8.61081 9.75352 8.73457 9.78219 8.86 9.78219C8.98543 9.78219 9.1092 9.75352 9.22185 9.69837C9.33451 9.64323 9.43307 9.56306 9.51 9.464L17.66 2.394C17.764 2.32868 17.8512 2.23997 17.9148 2.13495C17.9784 2.02993 18.0166 1.9115 18.0263 1.7891C18.036 1.66671 18.017 1.54374 17.9708 1.43C17.9245 1.31626 17.8524 1.2149 17.76 1.134L17.13 0.363997C17.0688 0.259051 16.9825 0.170898 16.8789 0.107405C16.7753 0.0439119 16.6576 0.00705495 16.5363 0.00012308C16.415 -0.00680879 16.2939 0.0164002 16.1837 0.0676786C16.0735 0.118957 15.9778 0.19671 15.905 0.293997L8.835 6.559L1.98 0.293997C1.525 -0.126003 1.175 -0.0910026 0.825003 0.398997L0.265003 1.169C0.173408 1.25434 0.102408 1.35938 0.0573711 1.47619C0.0123341 1.59299 -0.0055622 1.71851 0.00503349 1.84325C0.0156292 1.96799 0.0544407 2.08869 0.118534 2.19623C0.182627 2.30377 0.270325 2.39533 0.375002 2.464L8.21 9.464Z" fill="#404642"/>
</svg>
