<svg width="31" height="28" viewBox="0 0 31 28" fill="none" xmlns="http://www.w3.org/2000/svg">
<path d="M22.142 0.447914C19.8126 0.451175 17.5772 1.36695 15.915 2.99891C14.2528 1.36695 12.0174 0.451175 9.68798 0.447914C8.53184 0.440935 7.38565 0.661848 6.31493 1.09803C5.2442 1.5342 4.26992 2.1771 3.44776 2.98997C2.6256 3.80284 1.97168 4.76976 1.52336 5.83546C1.07505 6.90117 0.841131 8.04477 0.834978 9.20091C0.830554 11.4683 1.70974 13.6481 3.28598 15.2779L15.915 27.8069L28.294 15.5279C29.1505 14.7122 29.8316 13.7305 30.2959 12.6426C30.7601 11.5548 30.9976 10.3837 30.994 9.20091C30.9878 8.04485 30.7539 6.90134 30.3057 5.8357C29.8574 4.77006 29.2036 3.80319 28.3816 2.99033C27.5595 2.17747 26.5853 1.53455 25.5147 1.09831C24.4441 0.662075 23.298 0.441067 22.142 0.447914ZM22.142 2.39891C23.0416 2.39193 23.9339 2.56232 24.7677 2.90035C25.6014 3.23838 26.3604 3.73742 27.0012 4.36894C27.642 5.00046 28.1521 5.75208 28.5023 6.58084C28.8524 7.40959 29.0358 8.29924 29.042 9.19891C29.0524 10.1208 28.8712 11.0349 28.5097 11.8831C28.1482 12.7312 27.6143 13.495 26.942 14.1259L15.915 25.0579L4.68598 13.9279C3.46259 12.6589 2.78116 10.9636 2.78598 9.20091C2.79213 8.30124 2.97552 7.41159 3.32569 6.58284C3.67585 5.75408 4.18592 5.00246 4.82673 4.37094C5.46753 3.73942 6.22652 3.24038 7.0603 2.90235C7.89408 2.56432 8.78631 2.39393 9.68598 2.40091C10.9789 2.40265 12.2459 2.76344 13.3457 3.44305C14.4456 4.12267 15.335 5.0944 15.915 6.24991C16.4945 5.09433 17.3835 4.12239 18.483 3.44243C19.5825 2.76247 20.8492 2.40121 22.142 2.39891Z" fill="#404642"/>
</svg>
