<svg width="329" height="99" viewBox="0 0 329 99" fill="none" xmlns="http://www.w3.org/2000/svg">
<path d="M75.956 41.8122H75.9771C82.856 41.9272 91.259 44.9122 92.239 58.4772C92.402 60.2892 92.439 62.1232 92.458 63.9222L105.685 63.8972V61.9472C105.685 60.1162 105.56 58.2342 105.441 56.6142V56.5872V56.5612C105.054 48.9922 102.198 42.6352 97.183 38.1772C92.028 33.5952 84.79 31.1772 76.253 31.1772H75.953C68.116 31.1772 62.015 32.5682 55.799 39.4912L54.804 40.5992L53.204 42.3812L52.87 42.8162L52.842 42.7852L52.816 42.8142L52.502 42.4072L50.88 40.6012L49.885 39.4932C43.67 32.5692 37.571 31.1782 29.747 31.1782H29.428C20.897 31.1782 13.658 33.6002 8.50403 38.1782C3.48803 42.6362 0.632033 48.9842 0.246033 56.5352V56.5622V56.5882C0.127033 58.2222 0 60.1192 0 61.9482V91.5322C0 93.263 0.687576 94.9229 1.91144 96.1468C3.1353 97.3706 4.7952 98.0582 6.526 98.0582C8.2568 98.0582 9.91676 97.3706 11.1406 96.1468C12.3645 94.9229 13.052 93.263 13.052 91.5322V67.4142C13.052 64.3362 13.182 61.4042 13.452 58.4522C14.216 47.8832 19.982 41.9742 29.691 41.8122H29.733C36.643 41.8122 45.085 44.7742 46.054 58.8882V58.9332L46.06 59.0272V59.1642L45.967 91.1582C45.967 92.9826 46.6917 94.7323 47.9818 96.0224C49.2719 97.3124 51.0216 98.0372 52.846 98.0372C54.6704 98.0372 56.4201 97.3124 57.7102 96.0224C59.0003 94.7323 59.725 92.9826 59.725 91.1582L59.632 59.1532V59.0172L59.638 58.9322V58.8882C60.607 44.7742 69.038 41.8122 75.938 41.8122H75.956Z" fill="white"/>
<path d="M126.921 31.2022C117.827 31.3382 109.146 35.0234 102.732 41.4712C96.33 47.6159 92.6283 56.0504 92.4401 64.9222C92.4401 82.8882 108.553 98.6472 126.921 98.6472C145.221 98.6472 161.272 82.8882 161.272 64.9222C161.272 46.9562 145.221 31.2022 126.921 31.2022ZM126.797 87.2922H126.785C126.712 87.2922 126.636 87.2922 126.562 87.2922C114.662 87.2922 105.684 77.6722 105.684 64.9162C105.684 51.9542 114.563 42.5462 126.798 42.5462C139.098 42.5462 148.029 51.9542 148.029 64.9162C148.029 77.8782 139.1 87.2922 126.798 87.2922H126.797Z" fill="white"/>
<path d="M182.51 31.2022C173.415 31.3386 164.734 35.0245 158.32 41.4732C151.92 47.6187 148.219 56.053 148.032 64.9242C148.032 82.8882 164.143 98.6462 182.51 98.6462C200.81 98.6462 216.863 82.8882 216.863 64.9242C216.863 46.9602 200.81 31.2022 182.51 31.2022ZM182.403 87.2942H182.15C170.25 87.2942 161.274 77.6762 161.274 64.9222C161.274 51.9602 170.151 42.5522 182.383 42.5522C194.683 42.5522 203.619 51.9602 203.619 64.9222C203.619 77.8842 194.698 87.2852 182.403 87.2942Z" fill="white"/>
<path d="M238.098 31.2022C229.003 31.3387 220.323 35.0246 213.908 41.4732C207.507 47.6186 203.807 56.0529 203.62 64.9242C203.62 82.8882 219.731 98.6462 238.098 98.6462C256.398 98.6462 272.452 82.8882 272.452 64.9242C272.452 46.9602 256.397 31.2022 238.098 31.2022ZM237.991 87.2942H237.738C225.838 87.2942 216.863 77.6762 216.863 64.9222C216.863 51.9602 225.741 42.5522 237.973 42.5522C250.273 42.5522 259.209 51.9602 259.209 64.9222C259.209 77.8842 250.286 87.2852 237.986 87.2942H237.991Z" fill="white"/>
<path d="M328.318 63.5922C328.325 63.4812 328.33 63.3692 328.33 63.2582V6.25818C328.267 4.57731 327.556 2.98614 326.344 1.81909C325.133 0.652047 323.517 0 321.834 0C320.152 0 318.536 0.652047 317.325 1.81909C316.113 2.98614 315.402 4.57731 315.339 6.25818V38.2212L311.679 36.2312L309.849 35.2312C304.981 32.5609 299.524 31.1472 293.972 31.1182C284.878 31.2551 276.197 34.9418 269.784 41.3912C263.384 47.5377 259.684 55.9725 259.496 64.8442C259.496 82.8072 275.605 98.5632 293.971 98.5632C312.271 98.5632 328.329 82.8062 328.329 64.8442C328.329 64.5492 328.323 64.2592 328.312 63.9652V63.9012L328.307 63.7752L328.316 63.6492L328.318 63.5922ZM293.849 87.2192H293.634H293.618C281.718 87.2192 272.74 77.6012 272.74 64.8472C272.74 51.8852 281.617 42.4772 293.848 42.4772C306.148 42.4772 315.084 51.8852 315.084 64.8472C315.084 77.8092 306.152 87.2172 293.847 87.2172L293.849 87.2192Z" fill="white"/>
</svg>
