<svg width="31" height="31" viewBox="0 0 31 31" fill="none" xmlns="http://www.w3.org/2000/svg">
<path d="M25.437 13.5811C25.4421 11.9688 25.1287 10.3714 24.5148 8.88057C23.9009 7.38975 22.9985 6.03489 21.8596 4.89377C20.7206 3.75265 19.3674 2.84775 17.8777 2.23104C16.3881 1.61433 14.7913 1.29795 13.179 1.30006C11.5666 1.29781 9.9697 1.6141 8.47992 2.23075C6.99014 2.8474 5.63685 3.75228 4.49776 4.89341C3.35868 6.03455 2.45623 7.38946 1.84225 8.88034C1.22827 10.3712 0.914846 11.9687 0.919984 13.5811C0.919586 15.19 1.23657 16.7831 1.85278 18.2694C2.469 19.7556 3.37234 21.1056 4.51107 22.2422C5.64981 23.3788 7.00156 24.2796 8.48894 24.8931C9.97631 25.5065 11.5701 25.8205 13.179 25.8171C16.3176 25.8189 19.3387 24.6233 21.626 22.4741L28.959 29.8071L29.271 29.4951L21.938 22.1621C24.1851 19.8716 25.4418 16.7897 25.437 13.5811ZM17.792 24.4351C16.334 25.0587 14.7638 25.3773 13.178 25.3711C11.6022 25.3737 10.0416 25.063 8.58698 24.4571C7.18991 23.8636 5.91912 23.0086 4.84298 21.9381C3.7623 20.8569 2.89904 19.5785 2.29998 18.1721C1.67648 16.7221 1.35788 15.1594 1.36398 13.5811C1.35777 11.9953 1.67631 10.425 2.29998 8.96706C2.89334 7.56287 3.74856 6.28445 4.81998 5.20006C5.88827 4.12004 7.16105 3.2637 8.56398 2.68106C10.0227 2.05965 11.5925 1.7412 13.178 1.74506C14.7638 1.73885 16.334 2.05739 17.792 2.68106C19.1938 3.26626 20.4665 4.12227 21.537 5.20006C22.074 5.74042 22.5592 6.33 22.986 6.96106C23.415 7.60036 23.7807 8.2799 24.078 8.99006C24.6819 10.4453 24.9925 12.0055 24.992 13.5811C24.9925 15.1495 24.6818 16.7025 24.078 18.1501C23.4953 19.553 22.639 20.8258 21.559 21.8941C21.0266 22.4308 20.4447 22.9159 19.821 23.3431C19.1817 23.772 18.5021 24.1378 17.792 24.4351Z" fill="black" stroke="#404642" stroke-width="1.3"/>
</svg>
