<svg width="18" height="17" viewBox="0 0 18 17" fill="none" xmlns="http://www.w3.org/2000/svg">
<path d="M0.223999 16.685V13.185C0.223999 10.9207 1.1234 8.74921 2.72437 7.14806C4.32534 5.5469 6.49675 4.64725 8.761 4.64698H9.761V0.401981C9.76139 0.332567 9.78265 0.264874 9.82201 0.207701C9.86138 0.150527 9.91704 0.106517 9.98174 0.0813884C10.0465 0.0562602 10.1172 0.0511761 10.1849 0.0667972C10.2525 0.0824183 10.3139 0.118022 10.361 0.168981L17.373 7.85898C17.4308 7.9228 17.4629 8.00585 17.4629 8.09198C17.4629 8.17811 17.4308 8.26116 17.373 8.32498L10.361 16.015C10.3139 16.0659 10.2525 16.1015 10.1849 16.1172C10.1172 16.1328 10.0465 16.1277 9.98174 16.1026C9.91704 16.0774 9.86138 16.0334 9.82201 15.9763C9.78265 15.9191 9.76139 15.8514 9.761 15.782V11.535C8.23244 11.5418 6.72186 11.8651 5.3245 12.4847C3.92713 13.1043 2.67328 14.0067 1.642 15.135L0.223999 16.685ZM8.761 5.53898C6.73315 5.53898 4.78836 6.34454 3.35446 7.77844C1.92056 9.21235 1.115 11.1571 1.115 13.185V14.385C2.23173 13.2043 3.57732 12.2634 5.06966 11.6199C6.56201 10.9764 8.16982 10.6436 9.795 10.642H10.648V14.374L16.378 8.08998L10.648 1.80698V5.53898H8.761Z" fill="#404642"/>
</svg>
