<svg width="16" height="9" viewBox="0 0 16 9" fill="none" xmlns="http://www.w3.org/2000/svg">
<path d="M8.24401 0.183995C8.20169 0.126913 8.14658 0.0805359 8.08311 0.0485811C8.01964 0.0166264 7.94957 -1.71661e-05 7.87851 -1.71661e-05C7.80745 -1.71661e-05 7.73737 0.0166264 7.6739 0.0485811C7.61043 0.0805359 7.55533 0.126913 7.51301 0.183995L0.204008 7.149C0.144173 7.18857 0.094543 7.24173 0.0591681 7.30414C0.0237932 7.36654 0.00367555 7.43643 0.000457953 7.5081C-0.00275965 7.57976 0.0110136 7.65117 0.0406534 7.7165C0.0702932 7.78183 0.11496 7.83922 0.171007 7.88399L0.537008 8.33899C0.770008 8.61899 0.969009 8.61899 1.23701 8.37399L7.91601 2.07399L14.558 8.37399C14.824 8.61899 15.023 8.58399 15.223 8.30399L15.555 7.84899C15.609 7.80155 15.6511 7.74202 15.6778 7.67525C15.7045 7.60848 15.7151 7.53636 15.7086 7.46474C15.7022 7.39312 15.679 7.32403 15.6408 7.26308C15.6026 7.20214 15.5506 7.15106 15.489 7.11399L8.24401 0.183995Z" fill="#404642"/>
</svg>
